#N canvas 138 332 1314 596 10;
#X obj 361 129 notein;
#X obj 363 163 stripnote;
#X obj 361 193 sel 60 62 64;
#X obj 361 232 tgl 15 0 empty empty empty 17 7 0 10 -262144 -1 -1 0
1;
#X obj 374 300 vline~;
#X msg 457 306 0;
#X obj 264 203 noise~;
#X obj 330 402 *~ 0;
#X obj 328 450 dac~ 1 2;
#X obj 59 147 soundfiler;
#X obj 106 209 samplerate~;
#X obj 122 307 phasor~;
#X obj 73 173 s carS;
#X obj 197 214 r carS;
#X obj 174 275 /;
#X obj 141 251 f;
#X obj 221 234 t b f;
#X obj 134 361 *~ 1;
#X obj 281 13 s load;
#X obj 451 259 r load;
#X floatatom 214 324 10 0 0 0 - - -;
#X obj 252 133 soundfiler;
#X obj 266 159 s modS;
#X obj 312 330 +~;
#X obj 318 360 *~;
#X obj 270 428 r carMod;
#X obj 235 461 *~ 0;
#X obj 288 271 *~ 0;
#X obj 298 225 r noise;
#X obj 332 -5 loadbang;
#X msg 411 39 0;
#X msg 316 40 1;
#X msg 66 118 read -resize ./war.wav car;
#X obj 184 143 table car;
#X msg 256 105 read -resize ./1200khz.wav mod;
#X obj 166 402 tabread4~ car;
#X obj 361 352 r out;
#X obj 278 65 r init;
#X msg 368 263 \$1 10;
#X obj 442 382 phasor~;
#X obj 445 350 /;
#X obj 477 330 f;
#X obj 519 333 t b f;
#X obj 443 416 *~ 1;
#X floatatom 538 366 10 0 0 0 - - -;
#X obj 188 174 table mod;
#X obj 541 299 r modS;
#X obj 434 443 tabread4~ mod;
#X obj 159 167 bng 15 250 50 0 empty empty empty 17 7 0 10 -262144
-1 -1;
#X obj 466 470 *~;
#X obj 521 399 *~ 0.75;
#X obj 523 432 +~ 0.25;
#X obj 314 298 *~ 0.4;
#X msg 363 44 0.85;
#X obj 113 -3 cnv 15 150 100 empty empty empty 20 12 0 14 -260097 -66577
0;
#X obj 80 96 s init;
#X obj 125 57 bng 30 250 50 0 empty empty empty 17 7 0 10 -262144 -1
-1;
#X text 128 35 init;
#X text 118 2 kleinetrommel-ukw;
#X obj 454 -3 cnv 15 125 175 empty empty empty 20 12 0 14 -204800 -66577
0;
#X obj 547 33 vsl 15 128 0 1 0 0 empty empty empty 0 -9 0 10 -262144
-1 -1 0 1;
#X obj 659 250 s out;
#X obj 611 222 expr log($f1*1.718+1);
#X obj 507 32 vsl 15 128 0 1 0 0 empty empty empty 0 -9 0 10 -262144
-1 -1 0 1;
#X obj 550 182 expr log($f1*1.718+1);
#X obj 549 218 s carMod;
#X obj 469 31 vsl 15 128 0 1 0 0 empty empty empty 0 -9 0 10 -262144
-1 -1 0 1;
#X obj 505 249 expr log($f1*1.718+1);
#X obj 524 271 s noise;
#X text 456 4 noise;
#X text 495 4 carMod;
#X text 540 4 out;
#X connect 0 0 1 0;
#X connect 0 1 1 1;
#X connect 1 0 2 0;
#X connect 2 0 3 0;
#X connect 2 1 3 0;
#X connect 2 2 3 0;
#X connect 3 0 38 0;
#X connect 4 0 24 1;
#X connect 5 0 3 0;
#X connect 5 0 38 0;
#X connect 6 0 27 0;
#X connect 7 0 8 0;
#X connect 7 0 8 1;
#X connect 9 0 12 0;
#X connect 10 0 15 1;
#X connect 10 0 41 1;
#X connect 11 0 17 0;
#X connect 13 0 16 0;
#X connect 13 0 20 0;
#X connect 14 0 11 0;
#X connect 15 0 14 0;
#X connect 16 0 15 0;
#X connect 16 1 14 1;
#X connect 16 1 17 1;
#X connect 17 0 35 0;
#X connect 19 0 5 0;
#X connect 19 0 10 0;
#X connect 21 0 22 0;
#X connect 23 0 24 0;
#X connect 24 0 7 0;
#X connect 25 0 26 1;
#X connect 26 0 23 1;
#X connect 27 0 52 0;
#X connect 28 0 27 1;
#X connect 29 0 30 0;
#X connect 29 0 31 0;
#X connect 29 0 53 0;
#X connect 29 0 18 0;
#X connect 30 0 60 0;
#X connect 31 0 66 0;
#X connect 32 0 9 0;
#X connect 34 0 21 0;
#X connect 35 0 49 0;
#X connect 36 0 7 1;
#X connect 37 0 34 0;
#X connect 37 0 32 0;
#X connect 38 0 4 0;
#X connect 39 0 43 0;
#X connect 40 0 39 0;
#X connect 41 0 40 0;
#X connect 42 0 41 0;
#X connect 42 1 40 1;
#X connect 42 1 43 1;
#X connect 43 0 47 0;
#X connect 46 0 42 0;
#X connect 46 0 44 0;
#X connect 47 0 50 0;
#X connect 48 0 10 0;
#X connect 49 0 26 0;
#X connect 50 0 51 0;
#X connect 51 0 49 1;
#X connect 52 0 23 0;
#X connect 53 0 63 0;
#X connect 56 0 55 0;
#X connect 60 0 62 0;
#X connect 62 0 61 0;
#X connect 63 0 64 0;
#X connect 64 0 65 0;
#X connect 66 0 67 0;
#X connect 67 0 68 0;
